<?xml version="1.0"?>
<svg xmlns:rdf="http://www.w3.org/1999/02/22-rdf-syntax-ns#" xmlns="http://www.w3.org/2000/svg" xmlns:cc="http://web.resource.org/cc/" xmlns:xlink="http://www.w3.org/1999/xlink" xmlns:dc="http://purl.org/dc/elements/1.1/" xmlns:svg="http://www.w3.org/2000/svg" id="Layer_1" xml:space="preserve" viewBox="0 0 180.217 239.877" version="1.1" x="0px" y="0px" enable-background="new 0 0 180.217 239.877">
<path clip-rule="evenodd" d="m64.586 31.565c1.989 0.133 1.954 2.292 1.82 4.548-3.056 0.935-1.416-2.829-1.82-4.548z" fill-rule="evenodd"/>
<path clip-rule="evenodd" d="m119.17 38.843h1.819v1.819h-1.819v-1.819z" fill-rule="evenodd"/>
<path clip-rule="evenodd" d="m107.34 47.939c0.052 3.386-4.046 2.624-7.278 2.729 1.03-2.304 4.04-2.64 7.28-2.729z" fill-rule="evenodd"/>
<path clip-rule="evenodd" d="m117.35 47.939c1.825-0.31 2.845 0.187 2.727 1.82h-2.727v-1.82z" fill-rule="evenodd"/>
<path clip-rule="evenodd" d="m141 50.668c0.334 1.546-0.709 1.716-1.819 1.818 0.167-0.773-0.354-0.857-0.909-0.909 0.15-1.065 1.66-0.767 2.73-0.909z" fill-rule="evenodd"/>
<path clip-rule="evenodd" d="m142.82 82.506c-9.324-7.439-21.286-11.459-38.206-9.097 12.26-5.25 33.71-1.827 38.21 9.097z" fill-rule="evenodd"/>
<path clip-rule="evenodd" d="m129.17 87.964c2.861-0.131 3.126 2.333 3.639 4.548-1.914 1.998-4.043 0.188-5.458-0.91 0.01-1.807 2.49-1.156 1.82-3.638z" fill-rule="evenodd"/>
<path clip-rule="evenodd" d="m161.92 104.34c0.217-3.724 3.795-4.088 7.276-4.549-1.37 2.569-4.9 2.989-7.28 4.549z" fill-rule="evenodd"/>
<path clip-rule="evenodd" d="m118.26 135.27c2.966-0.236 4.377 1.079 4.548 3.639-1.83 1.71-4.23-1.12-4.55-3.64z" fill-rule="evenodd"/>
<path clip-rule="evenodd" d="m126.44 154.37h2.729c0.257 1.468-0.859 1.566-0.91 2.729h-1.818v-2.73z" fill-rule="evenodd"/>
<path clip-rule="evenodd" d="m89.147 209.86c-0.933 3.616-4.41 4.687-3.639 10.006 6.093 0.897 17.074 5.529 11.826 11.826-3.361-0.277-1.595-5.685-3.639-7.278-11.485 2.19-16.073-12.84-4.548-14.56z" fill-rule="evenodd"/>
<path clip-rule="evenodd" d="m80.961 236.24c-0.071 2.514-10.076 3.232-10.006 0 2.746-1.23 7.259-1.23 10.006 0z" fill-rule="evenodd"/>
<path clip-rule="evenodd" d="m111.89 185.3c-3.221 0.721-1.076 6.805-5.457 6.367 4.223-10.331 6.084-23.024 9.096-34.566-5.474-0.363-16.044-0.038-19.102-5.459 2.747 2.536 3.47-1.175 6.367-0.908 5.915 0.539 8.788 6.844 15.465 2.728 4.64-2.861 8.811-8.373 13.644-12.734 8.067-7.276 13.081-11.767 19.104-19.102 0.805-6.172 4.73-9.218 5.457-15.465-3.814-0.778 0.875-4.341-0.909-8.187-0.791-2.688-1.361 2.11-3.639 0.909-0.099-2.263-1.703-2.816 0-4.548-4.371 1.717 0.315 5.062 0 8.187-1.892-0.533-2.939-1.912-4.548-2.729-5.887 7.435-1.582 27.917-17.282 22.742-0.311-1.825 0.187-2.846 1.817-2.729-2.241-3.389-6.468 0.223-9.096-1.82 1.936-1.861 3.685-3.389 9.096-3.638 2.373 1.911 0.775 3.547 1.821 5.458 7.345 1.824 6.16-6.377 7.276-10.006 2.337-7.594 3.986-16.632 7.276-21.832-1.78-1.7-0.28-3.332 0-5.458 5.476-4.514 12.11 0.545 15.465 3.639 1.771-7.386 2.715-15.549 0.908-24.561-1.273-1.854-3.133 0.894-5.456-0.91 1.019-2.866 0.081-2.06 0-5.458-1.466-0.389-3.054 3.392-0.909 3.639-2.331 0.55-4.776-1.036-10.008 0 0.685-3.109-3.696-1.156-2.729-4.549-3.174 3.104-8.349 1.483-10.915-0.91-0.361-3.314 3.755-7.18-0.909-9.096-3.875 1.171 0.088 4.521-0.911 8.187-0.557 1.262-3.502 0.137-3.639 1.82-3.012-2.198 3.909-2.084 2.729-5.458-3.106-0.683-1.156 3.696-4.548 2.729-1.054-1.346-1.054-2.293 0-3.639-3.765-0.43-2.417 4.254-3.639 6.368-6.744 0.118-12.264 3.179-19.103 5.458-1.004 4.15-1.53 8.778-3.639 11.825-3.345 2.113-10.419 0.497-11.825 4.549 2.245 5.176 1.797 10.096 0 15.464-2.808 0.225-5.143 0.922-7.278 1.819 1.169 11.176-8.432 11.581-13.645 16.374-0.026 5.484 1.328 9.588 4.548 11.827 2.463 9.512-2.76 13.356-6.367 19.102 0.922 8.174 9.542 8.65 10.916 16.374-1.092 4.669-4.442 7.08-8.187 9.098-1.32 11.02 9.33 11.491 8.187 20.013-0.713 5.313-7.84 4.361-6.367 12.734 1.647 1.99 7.122 0.154 9.096 1.817-0.312 4.854-2.303 3.897-0.91 9.098-1.346-1.054-2.293-1.054-3.639 0 1.246 3.287 3.065 3.291 5.459 3.639-3.598 8.877 2.386 14.891 11.824 13.646-0.021 2.143 1.567 2.677 0.911 5.457-2.849 0.422-4.061-0.791-3.639-3.64-5.612-0.756-10.344-2.392-11.826-7.275-1.298 1.213-2.407 4.044-0.91 5.458 4.408 4.251 11.933 4.295 11.826 10.915h-6.368c2.667-13.09-14.777-0.055-17.283-9.098-0.491-4.733 1.095-7.394 2.729-10.004-4.393-8.343-14.933-10.539-14.554-23.652-2.161 0.569 0.141 5.6-1.819 6.368-2.436-4.584-0.318-12.427 1.819-15.463-6.197-6.337-7.25-21.948 0-29.11-0.388-1.736-2.599-1.646-1.819-4.548-3.648 1.85-2.05 2.504-3.639 8.187-1.73 6.188-5.671 7.357-3.638 14.555 1.053 3.724 5.943 5.599 6.368 9.095 0.625 5.168-2.953 7.933-5.458 11.826-0.935 7.001 1.399 10.73 2.729 15.465 5.949 4.244 13.663 1.384 15.464 8.187 1.35 5.096-6.263 11.971 0 17.283-7.484-0.51-5.769-12.351-1.818-15.463-1.022-5.649-8.062-5.28-13.646-6.367-4.518-5.077-7.387-11.746-5.458-20.922 2.356-2.799 5.522-4.787 6.367-9.098-7.597-6.938-11.292-17.991-2.729-26.38 0.515-4.457-1.42-6.465-3.638-8.187-3.616 8.209-6.726 16.925-11.826 23.651-7.007 4.209-14.368 8.069-20.923 12.734 1.258 1.472 3.219 2.24 2.729 5.457-2.199 1.932-7.127 1.078-6.367-2.729-2.412 1.229-2.483 4.795-6.369 4.55 6.744-15.84 28.771-15.963 35.478-31.839 1.004-2.378 1.468-6.624 2.729-10.006 2.018-5.417 4.479-7.562 3.639-15.465 11.204-8.613-5.731-20.941 2.729-31.838-4.705-3.556-9.881-0.938-14.555-3.639-7.748-4.479-9.745-17.485-6.367-27.29 2.357-0.979 3.381-3.289 6.367-3.639-2.218-8.378-1.087-19.385 5.458-21.831-0.731-6.19 2.731-8.184 2.729-13.646 2.395-0.941 3.064-3.607 5.458-4.548 0.482-8.615 8.691-9.502 11.825-15.464 12.349-6.604 21.513-12.427 34.581-14.565 17.415-2.851 47.451 3.992 64.586 18.193 1.293 1.071 1.046 2.899 2.728 4.549 1.692 1.657 5.236 2.348 6.368 3.638 1.414 1.611 3.54 6.206 5.458 9.097 3.451 5.206 4.674 5.717 5.459 12.736 0.496 4.451 3.876 9.465 4.548 13.644 2.663 16.589-0.411 30.771-3.64 44.573-6.807 3.503-7.032 13.587-15.465 15.465-2.779 0.658-3.313-0.932-5.456-0.908-6.868 8.595-14.147 16.78-21.833 24.561 1.148 3.019 3.272 7.631 0 10.004-1.773-1.562-1.96-4.709-1.819-8.187-6.257 3.016-7.859 11.742-2.729 17.284 2-0.713-2.78-8.896 2.729-8.187-1.359 7.12 3.156 8.365 5.457 11.825 1.146 6.604-1.538 9.376-3.638 12.735 3.754 4.77 7.704 6.418 5.459 15.465 6.837 5.275 15.971 4.408 15.465 14.554-0.235 4.66-4.805 4.759-4.55 10.917 0.204 2.829 4.527 1.536 7.276 1.817 5.449 3.933 3.734 13.85-2.727 15.465-2.221-1.553 2.958-9.289-2.73-9.095 3.058-3.427 4.188-0.008 6.367 1.817-1.39-8.312-13.325-6.078-16.373-12.735-6.21 8.662 13.969 5.803 9.098 19.104-2.533-0.319-5.324 0.434-7.278 0-2.221-0.496-1.869-2.171-4.548-3.64-4.635-2.54-9.168-0.88-10.917-5.458-0.827-7.145 2.747-13.481-0.909-18.193-15.45-0.03-6.57-20.19-14.56-26.37zm3.64-7.28c-0.522-1.601 1.1-5.346-0.908-5.46-3.548 7.449 0.175 15.427 4.548 20.013-3.985 4.89-1.357 18.915 6.369 14.556-5.537-1.484-0.35-8.098-1.821-13.646-6.744-1.726-8.21-14.919-3.64-20.013-0.103-3.838-2.688-5.192-4.548-7.275 0.69 4.22 5.56 8.92 0 11.82zm24.56-130.08c-2.91 0.121-4 2.062-3.639 5.458 1.733 0.391 2.287 1.96 4.55 1.82 0.012-1.807 2.481-1.157 1.819-3.638-1.87-0.255-1.82-2.431-2.73-3.64zm-30.02-43.663c1.817 1.821 4.62 2.657 5.456 5.458-4.426-2.243-7.301-6.039-12.734-7.277-0.799 2.92 2.359 1.886 2.73 3.639-3.094 3.589 5.978 6.982 0.908 10.005-3-5.188-3.835-12.539-10.006-14.554 2.432 4.543 1.526 12.421 3.637 17.284 5.403-1.875 11.461-3.095 18.195-3.638 1.152-2.774-3.11-4.631-0.909-5.458 1.833 1.198 3.076 2.987 3.638 5.458 6.53-1.053 14.056 1.687 18.193 0-4.478-4.014-8.913-8.066-16.374-9.097-0.313 4.287 9.185 3.509 6.367 7.277-5.09-3.722-12.2-10.231-19.11-9.097zm-16.374-1.82c-6.602-0.22-15.768 1.801-15.465 5.458 1.7-1.973 7.927-4.154 10.916-1.818-4.375 4.113-6.136 10.844-9.097 16.374 3.639 2.02 6.233-0.537 9.097-1.819 0.344-6.63-1.588-15.537 4.549-16.374-1.806 4.186-2.589 12.429-1.82 16.374 2.665 0.238 2.794-2.056 5.459-1.819-2.89-5.774 0.423-12.711-3.639-16.376zm-21.832 19.103c1.617 0.808 2.312 2.539 5.458 1.82 2.68-4.599 4.545-10.01 6.367-15.465-7.762 0.728-5.498 11.482-11.825 13.645zm-10.006 0c5.645 2.71 8.323-3.228 12.734-4.549-1.46-3.57 4.376-7.531 0-8.187-3.33 5.159-8.353 8.628-12.734 12.736zm-23.652 26.38c6.55-3.247 10.218-10.769 10.006-18.193 3.081-3.894 6.927-7.021 12.736-8.187-0.413-5.889 10.573-5.169 7.277-10.916-13.964 8.475-26.822 18.054-30.019 37.296zm115.52-27.29c-5.35-3.141-9.959-7.021-15.465-10.006 1.51 6.395 10.6 10.015 15.47 10.006zm-39.11 9.097c5.591 0.134 5.557-5.359 10.006-6.367 13.782 2.386 26.091 4.438 37.297 5.458-9.632-8.882-31.633-14.277-46.395-10.917-14.29 3.254-27.617 4.746-37.295 10.006-2.664 5.341-1.303 12.646-2.729 17.284 3.515 0.179 6.704 0.032 9.097-0.91 0.941-12.057 16.726-13.233 26.38-13.645-0.617-3.982 6.043-9.268 8.188-4.549-2.45-2.323-5.16 0.196-4.56 3.64zm-57.311 0c2.146-0.281 1.692-3.159 4.549-2.729-1.415 3.234 3.089 0.55 2.728 2.729-6.431 1.34 1.62 6.726-1.818 10.006-2.1-0.933 0.025-6.091-3.639-5.458-0.222 8.399-10.512 16.167-1.819 22.742-1.314-11.017 4.655-14.751 10.916-18.193-1.952-7.89 0.326-10.985 3.639-15.464-6.274-1.995-6.37 5.898-10.006 3.638 0.286-1.229 1.294-1.737 0.91-3.638-6.737 0.236-9.275 4.672-11.826 9.096 4.994 8.5-11.198 15.705-0.91 20.921 0.858-9.45 8.678-11.938 7.276-23.65zm12.735-1.82c0.66 2.783-1.569 2.676-0.91 5.458 2.8-0.678 1.749 2.497 4.548 1.819-2.579-6.252 4.705-7.378 2.729-10.005-1.554 1.476-3.31 2.753-6.367 2.728zm52.756-1.819c3.335 4.823 0.941 8.481 1.819 12.736 1.006-2.33 4.885-1.787 8.187-1.82-0.068-1.584 0.204-2.829 0.911-3.638-4.247 1.503-3.996-0.568-6.369-2.729 1.145-0.373 1.859-1.173 1.819-2.729-3.108 0.683-1.154-3.696-4.548-2.728-0.2 0.707-0.76 1.056-1.82 0.908zm15.47 8.187c2.092-3.467-1.046-8.319-5.459-8.187 0.59 3.956 0.93 8.166 5.46 8.187zm4.55-5.458c-1.008 4.948 3.09 4.794 2.729 9.096 2.865 0.439 2.059-2.792 5.458-1.819-0.85-4.389-3.18-9.805-8.19-7.277zm17.28 10.916c-1.402 1.628-1.506 4.557-5.456 3.639-0.206 1.719 1.024 2.006 0.908 3.638 3.563-0.716 3.765-5.715 6.369-5.458 2.871 0.283-2.821 3.93 1.818 2.729-1.271-6.614-6.048-9.718-8.188-15.464h-2.728c-0.57 6.641 2.57 9.563 7.28 10.916zm-71.862 4.548c-3.758 3.823-14.017 1.145-15.465 7.278 5.25 0.017 9.305-3.675 14.555-0.91 4.942-3.777 9.93-16.44 19.103-10.006-11.483-1.78-10.506 8.899-17.283 11.825-3.974 0.638-5.124-1.546-9.097-0.909-2.285 1.987-8.938 4.366-6.368 8.187 2.572-1.673 3.789-4.702 8.187-4.549-2.117 3.21-12.023 6.721-6.368 11.826 0.471-7.919 8.318-12.245 15.464-8.187 2.543-1.73 4.788-8.518 7.278-7.277-1.775 3.075-3.384 6.318-5.459 9.097-0.912-0.003-1.082 0.737-1.819 0.91-9.485-5.969-18.248 5.136-12.735 14.554-1.565 3.59-6.08 4.229-9.097 6.367h4.548c-2.953 2.98 1.411 4.297-2.728 7.277 5.226-0.232 11.597 0.682 15.464-0.91 2.389-5.094-0.663-10.231 0-16.374 2.308-2.543 8.46-1.242 11.826-2.728 1.813-2.759 4.084-9.832 3.639-11.826-3.616 3.454-5.857 11.781-13.645 8.187-11.562 4.66 5.051 24.985-13.646 20.922 3.777-0.196 9.499-3.196 8.187-5.458-1.717 0.77-4.124 5.498-6.367 2.729 1.435-1.94 7.351-4.118 4.549-7.277-0.779 2.299-3.418 7.437-6.369 4.548 7.314-2.389 5.396-14.01 11.826-17.283h10.006c1.237-5.567 7.104-12.654 12.734-8.187 2.128-0.299 3.759-1.093 5.459-1.819-1.52-7.812-13.872-16.341-1.819-20.013 2.043 3.34 4.095 10.75 10.006 7.278 1.099-5.071-4.47-4.016-5.457-4.549-0.235-3.102-1.855-4.817-4.549-5.458-4.64 5.389-25.495-0.883-24.562 12.735zm80.962-2.728c-2.082-3.981-3.584-8.545-8.187-10.006 1.52 4.539 2.1 10.025 8.19 10.006zm-31.84 0v4.548c1.226 1.242 6.352 1.734 6.367-0.91-1.598-0.827-1.664-3.188-2.729-4.548 1.403-0.218 4.359-3.382 1.819-4.549-3.012 2.986-1.468-1.061-2.73-1.819-2.631 2.002-1.502 4.839 0.911 6.368-1.23 0.286-1.74 1.295-3.64 0.91zm13.64 0c1.871-3.054 1.879-0.64 4.548 0-0.217-3.423-3.729-3.548-6.367-4.549-1.44 1.359-1.32 5.186 1.82 4.549zm-36.38 5.457c3.27-4.646-1.997-7.367-4.548-9.097-0.62 5.164 1.36 7.741 4.55 9.097zm7.28-0.909c3.399 1.768 8.56-1.445 10.005-4.548-1.913-0.816-2.936-2.523-4.548-3.639 0.27 4.816-3.87 5.225-5.45 8.187zm21.83-3.639c5.909 1.629-2.339 7.536 2.729 10.005 1.879-2.364-0.195-8.685 2.729-10.005-2.48 0.004-4.27-3.825-5.46 0zm-80.962 19.103c-1.225 2.414-4.546 2.731-4.549 6.367-0.492 3.221 3.222 2.237 2.729 5.458-2.689 3.735-8.432 11.328-2.729 15.464 0.096-4.825 0.515-1.074 1.819 0 1.573-2.066 2.195-5.082 1.82-9.096 2.976-4.303 12.088-2.466 11.825-10.006-4.801 0.657-5.571 5.343-10.006 6.367 3.215-3.287 0.451-6.54 0-10.916 2.125-3.384 5.068-6.415 2.729-11.826 1.154-4.322 8.384-7.357 6.367-11.825-1.593 2.69-4.846-0.526-7.277 0-4.417 3.818-6.032 13.637-2.728 20.013zm102.79-12.735c0.454-3.663 2.952-2.032 5.458-0.91 0.267-0.558 2.263-3.502 0-3.639-0.561 4.705-1.804-2.12-3.639-1.819-0.16 2.646-6.48 4.368-1.82 6.368zm-120.99-1.82c2.263 0.858 0.266-5.207 0-1.819 0.082 1.487-1.515 3.957 0 1.819zm103.7-0.909c-0.202 1.721 1.026 2.007 0.91 3.639 2.801-0.637 1.747-0.637 4.55 0 1.26-4.307-3.32-5.503-5.46-3.639zm-31.83 0.909c-0.375 3.71 0.932 5.739 4.548 5.458 0.192-1.02 1.01-1.416 1.819-1.818-0.51-3.465-2.85-5.642-6.37-3.64zm48.21 9.097c1.821-2.729 8.805-0.293 8.188-5.458-3.393 1.546-1.438-0.538-4.548-0.91-2.347 0.078-0.957 3.894-4.548 2.728 0.452-3.483-1.251-4.812-3.64-5.458 0.779 2.902-1.43 2.814-1.817 4.549 3.18 0.457 6.14 1.134 6.37 4.549zm-127.35-5.458c-4.82 1.547-5.742 6.993-5.458 13.645 4.073-3.204 5.816-8.738 10.006-11.826-1.913 0.286-5.429 2.588-4.548-1.819zm7.278 25.471c-1.362 1.367-1.627 3.83-3.639 4.548-0.281 6.179 1.695 15.969 5.458 20.922-1.506-4.881 3.736-7.734 1.819-10.006-0.204 0.707-0.025 1.795-0.91 1.819-3.724-4.77-5.771-9.254-3.638-14.554 0.757-1.88 2.959-2.583 3.638-4.549 0.417-1.208-1.037-2.096-0.91-2.729 0.027-0.134 1.78 0.138 1.819 0 0.73-2.603 0.481-5.597 1.819-8.187 0.762-1.473 7.981-4.413 3.639-7.277 0.254 2.073-0.22 3.419-1.819 3.639 0.12-1.196 0.138-6.583-0.91-3.639 0.253 2.073-0.22 3.419-1.82 3.639 0.968-5.82-2.787-6.916-5.458-9.097 8.82 7.185-6.101 14.659 0.912 25.47zm107.34-18.194c0.733-3.207 5.552-2.332 5.458-6.367-2.88-2.691-7.9 3.851-5.46 6.367zm-111.88 0.91c0.441 1.075 0.97 2.062 1.82 2.729-0.306-2.967 1.397-5.895 3.638-3.639-0.382-1.739-0.329-3.916-2.729-3.639-0.28 2.146-3.158 1.694-2.729 4.549zm121.9 0.91c4.59-3.663-3.17-4.261 0 0zm4.55 0.91c1.692-0.87 3.039 2.724 3.64 0-2.853-0.629-1.187-2.427-0.911-4.549-2.56-0.132-2.63 2.228-2.73 4.549zm-113.71 16.373c-8.171 2.09-5.334 13.371-0.91 17.284 0.136 2.259-0.471 3.775-1.82 4.548 1.298 3.554 3.724 5.98 7.277 7.278-1.366-9.07-2.534-14.964-5.458-23.652 0.886-4.268 6.34-3.969 6.367-9.097-3.492-4.76-1.061-11.984-1.819-15.464-2.523 6.594-9.332 11.652-3.637 19.101zm119.17-16.373c0.053-0.555 0.137-1.077 0.909-0.91-0.104-1.11-0.271-2.154-1.818-1.82 0.14 1.071-0.16 2.582 0.91 2.73zm1.81 10.915c0.729-2.348 2.044-8.812 0-10.915-2.17 2.703-3.66 9.924 0 10.915zm-5.45 0c2.081-3.014 2.884-9.332-1.818-10.005 0.97 4.88-0.58 7.733 1.82 10.005zm-130.08 10.916c0.07-2.125 3.875-5.125 0.91-7.277-1.299 0.896-3.274 5.726-0.91 7.277zm0.91-10.006c-5.953-0.495-4.524 6.392-6.367 10.006-4.956-1.884 1.045-7.034 0.91-10.006-5.299-1.053-1.744 6.746-5.458 7.278-2.604-1.414 1.896-4.246-0.91-5.458-1.633 4.078-6.857 11.382 0 13.645 0.246 4.909 2.029 8.281 5.458 10.006 0.323-3.301-6.015-5.647-1.819-7.278 2.033 4.342 0.665 0.334 4.548 0.91 0.44 0.065 3.5 1.685 3.638 1.819 1.102 1.075 0.105 3.665 2.729 4.549 0.503-4.435-2.602-11.525-6.368-14.555-0.853-5.705 2.786-6.917 3.639-10.916zm127.35 35.48c1.168-1.195 1.168-3.353 0-4.548 2.269-0.46 3.738-1.72 5.457-2.729-4.787-0.955 4.662-5.885 5.459-9.097 1.686-6.795-0.529-11.361-7.276-15.464-0.145-1.07 0.155-2.582-0.911-2.729 1.232 8.779 5.674 16.452-0.91 20.923-5.018 3.408-9.921 5.184-9.096 14.554 5.141 7.33 15.887-2.681 14.554-7.277-0.96 3.58-3.55 5.54-7.27 6.37zm-96.426-30.022c1.565 0.049 2.332-0.7 2.729-1.819-1.565-0.05-2.332 0.699-2.729 1.819zm-22.741 1.82c0.131-1.075 1.62-2.063 0-2.729-0.132 1.075-1.62 2.061 0 2.729zm121.9 5.457c1.67-1.938-0.257-5.793-1.819-7.277-1.12 2.577-0.74 6.016 1.82 7.277zm-19.1-0.909c1.141 6.407 4.088 6.366 11.825 9.096 3.09-6.709-5.01-12.288-11.82-9.096zm-86.424 7.277c0.509 3.434 2.845 5.04 6.368 5.458 0.764-1.056 1.2-2.439 0.91-4.549-3.233 1.782-3.307-1.187-7.278-0.909zm6.368-1.82c-0.849-0.971-3.355-0.282-2.729-2.729 1.612-0.207 4.555 0.917 3.639-1.819-2.27 1.748-3.738-1.388-5.458 0.91 2.91 1.267-3.719 0.396-2.729 2.729 2.797 1.208 4.58 3.975 7.277 0.909zm-0.909 10.007c-0.797 2.92 2.359 1.886 2.729 3.639 5.094 0.335 9.98-8.53 6.367-10.917-3.697 1.759-1.776 9.137-9.096 7.277zm80.045-0.91c-0.522-1.599 1.101-5.345-0.91-5.458-1.2 1.917-2.93 5.044 0.91 5.458zm-90.052-2.729c-0.623 5.641 2.221 8.041 6.368 10.915 1.581-0.324 6.925-1.449 4.548-2.728-4.531 1.78-7.565-5.761-10.916-8.189zm-12.735 23.649c0.049-1.565-0.7-2.332-1.819-2.729 0.652 4.806 4.627 6.288 4.548 11.826-3.58 3.405-8.139 21.667-0.91 21.833 0.993-4.915-2.827-9.019-0.91-15.465 0.794-2.668 4.141-4.113 4.549-7.278 0.896-6.951-4.676-13.972-2.729-20.922-3.133 2.03-0.528 9.79-2.729 12.74zm20.922 6.37c-0.177 6.482-8.289 6.683-9.097 14.554-3.343-6.339 4.858-8.291 5.458-13.646-0.695-3.247-2.345-5.538-4.548-7.277 3.44 9.049-11.232 22.219 1.82 27.29-1.935-7.877 2.065-12.351 6.367-16.374 0.086 1.431-0.122 3.154 1.819 2.729 3.933-6.901-0.358-17.045-5.458-20.921 1.896 1.441-4.371 0.232-2.728-0.91-2.031 7.28 6.538 8.3 6.367 14.56zm-10.006 0.91c2.011-4.727-1.724-10.801-4.548-13.645 0.73 5.33 3.978 8.14 4.548 13.64zm99.151-12.74c0.81 2.653 1.163 3.138-0.909 4.548 1.021 0.192 1.417 1.009 1.819 1.819 4.613-0.237 6.427-3.277 8.188-6.367-3.96-2.33-5.29 3.8-9.1 0zm-98.241 36.39c3.85-0.1 0.016-1.706-0.91 0-2.098-5.811-6.466-12.051-6.367-17.285-4.731 6.077 0.092 13.923 4.547 16.376 0.644 4.886-0.718 7.769-1.818 10.915 4.037-1.47 5.566-5.92 4.548-10.01zm5.457-9.09c0.266-0.56 2.264-3.503 0-3.64-0.265 0.55-2.262 3.5 0 3.64zm3.639 7.27c-1.076-5.58-4.38-2.28 0 0zm-2.729 12.74c2.142-2.66 3.027-5.176 1.82-9.096 1.31 0.507 2.22 1.418 2.729 2.728-0.487 5.949-9.254 14.826-1.819 20.014 0.992-1.054-2.137-5.702-0.91-10.007 2.532-2.343 9.678-4.847 6.367-10.007-2.298 0.449-5.297-6.201-9.097-7.277-0.377 3.3 0.931 9.41 0.91 13.66zm-11.825-10.92c-0.731 5.51 4.17 0.61 0 0zm5.458 9.1c-4.803 4.453-0.739 0.449 2.729-0.908-0.055-3.074 1.641-3.883-0.91-5.459 0.598 3.33-1.969 3.49-1.819 6.37zm64.581 13.64c3.068-4.578-1.414-7.052-3.639-10.006-0.719-0.955 0.601-3.514-1.818-2.729-0.62 6.7 3.65 8.5 5.46 12.74zm-64.581 4.55c3.28 2.531 6.033-0.019 9.097 2.727 1.24 4.084-3.663 4.419-5.458 2.73-2.77 11.096-5.123 23.412 7.277 24.561-1.603-5.084-8.145-7.729-7.277-14.555 0.436-3.436 4.003-7.65 7.277-7.275-8.498 3.277-5.767 20.381 4.548 16.373-4.555-1.205-6.169-5.354-5.458-11.825 3.268-1.282 6.488-2.609 7.277-6.37-0.014-3.319-2.585-4.083-3.638-6.365-2.944-1.125-0.696 2.943-3.639 1.817-5.611-3.188-6.761-11.996-5.458-17.282-4.546 2.14-5.083 8.27-4.548 15.48zm-1.82-9.1c-0.648-2.268 4.004-3.737 0.91-5.458-0.652 0.98-3.552 4.2-0.91 5.46zm-0.91 12.74c1.667 2.34-1.038 3.855 2.729 4.55 2.616-5.613-4.695-8.453-6.367-12.737-1.053-3.357 0.901-6.265-1.82-6.367-0.797 7.47 2.322 11.03 5.458 14.56zm69.131 1.82c0.504-4.347 3.542-6.16 6.367-8.187-1.053-2.891-0.48-7.404-4.548-7.278 2.13 7.31-5.25 9.88-1.82 15.47zm9.1-12.74c-0.441-1.075-0.972-2.062-1.821-2.729-0.14 1.22 1.43 5.02 1.82 2.73zm1.82 20.02c-0.125-5.636-6.863-4.658-5.456-11.826 1.89 0.484 1.928-3.544 0.908-0.909-4.87 3.53 0.56 15.15 4.55 12.74zm-6.37 1.81c-1.643-0.696-6.098-6.518-7.276-1.817 4.122 0.213 5.351 4.723 9.096 2.728 0.399 3.128-0.359 5.098-0.908 7.276 1.625 5.046 8.455 4.887 10.915 9.098 0.359-1.564-1.35-2.333 0-2.729 1.327 2.008 2.949 3.723 4.548 5.457-1.552 0.354-4.088 4.285-1.819 5.458 3.546-3.146 3.639-8.675 2.729-11.825 3.632 0.005 1.742 5.534 3.64 7.277 4.656-12.036-13.252-9.112-15.465-17.284-0.46 2.857 2.145 3.719-0.909 4.548 0.81-9.301-4.951-12.027-7.278-18.191-0.86 5.09 2.32 6.16 2.72 9.99zm0.91 26.39c2.19 0.372 1.978-1.662 4.548-0.911 0.942-9.434-6.222-10.759-9.096-16.373-1.05 6.13 6.27 10.32 4.55 17.28zm-60.945-3.64c2.203 4.938-1.658 13.104 4.548 15.465-3.617-6.296 2.961-14.256-2.728-20.013-3.697-0.853-5.685-3.415-10.006-3.64 2.016 4.64 5.943 3.16 8.186 8.19zm66.405 6.36c3.502-0.964 2.357-5.618 1.82-7.276-1.56 1.48-2.26 3.81-1.82 7.28zm6.37 13.65c1.1-0.182 2.596-2.886 3.638-2.729 1.667 0.251 1.354 4.422 2.729 3.639 1.44-8.11-6.039-7.303-10.005-10.006-0.745 4.888-5.058 0.553-6.369 4.55-1.064-1.361-1.129-3.723-2.729-4.55 1.31 5.17 7.46 9.97 12.73 9.1z" fill-rule="evenodd"/>
<path clip-rule="evenodd" d="m132.81 87.055c-5.5-3.604-5.77 4.869-12.736 2.729-2.695-1.245-1.008-6.874-2.727-9.097-2.231 0.8-5.247 0.819-5.46 3.639-3.548-1.21-0.183-4.064-1.817-6.368 9.81-2.398 22.79-3.055 22.75 9.097zm-8.19-9.097c-5.82-1.05-1.99 2.778 0 0zm-1.82 10.006c0.677-2.8-2.498-1.748-1.819-4.548 0.504 0.002 1.032-0.737 0-0.91-1.48 1.473-1.09 5.713 1.82 5.458z" fill-rule="evenodd"/>
<path clip-rule="evenodd" d="m133.72 125.26c-1.251 2.879-0.199 3.04 0 6.367-3.779-0.104-3.958 4.102-7.278 4.548-4.205 0.57-7.741-3.167-10.917-5.457 2.204-3.484 7.001 3.923 12.735 2.729 0.077-7.052-8.202-5.743-13.644-7.275v-2.73c3.9 1.27 13.66-1.24 19.1 1.81z" fill-rule="evenodd"/>
<metadata><rdf:RDF><cc:Work><dc:format>image/svg+xml</dc:format><dc:type rdf:resource="http://purl.org/dc/dcmitype/StillImage"/><cc:license rdf:resource="http://creativecommons.org/licenses/publicdomain/"/><dc:publisher><cc:Agent rdf:about="http://openclipart.org/"><dc:title>Openclipart</dc:title></cc:Agent></dc:publisher><dc:title>Grecian hairdressing 1</dc:title><dc:date>2009-01-06T16:19:15</dc:date><dc:description>Harmsworth's UNIVERSAL ENCYCLOPEDIA Written by the Leading Authorities in Every Branch of Knowledge and edited by J. A. Hammerton 1900</dc:description><dc:source>http://openclipart.org/detail/20996/grecian-hairdressing-1-by-johnny_automatic</dc:source><dc:creator><cc:Agent><dc:title>johnny_automatic</dc:title></cc:Agent></dc:creator><dc:subject><rdf:Bag><rdf:li>ancient</rdf:li><rdf:li>clip art</rdf:li><rdf:li>clipart</rdf:li><rdf:li>externalsource</rdf:li><rdf:li>grecian</rdf:li><rdf:li>greece</rdf:li><rdf:li>greek</rdf:li><rdf:li>hair</rdf:li><rdf:li>hairdressing</rdf:li><rdf:li>head</rdf:li><rdf:li>image</rdf:li><rdf:li>media</rdf:li><rdf:li>person</rdf:li><rdf:li>png</rdf:li><rdf:li>public domain</rdf:li><rdf:li>svg</rdf:li></rdf:Bag></dc:subject></cc:Work><cc:License rdf:about="http://creativecommons.org/licenses/publicdomain/"><cc:permits rdf:resource="http://creativecommons.org/ns#Reproduction"/><cc:permits rdf:resource="http://creativecommons.org/ns#Distribution"/><cc:permits rdf:resource="http://creativecommons.org/ns#DerivativeWorks"/></cc:License></rdf:RDF></metadata></svg>
